#N canvas 92 100 927 674 10;
#X obj 1182 368 env~;
#X obj 1242 362 env~;
#X obj 1190 408 - 90;
#X obj 1255 408 - 90;
#X obj 1159 477 vu 15 120 empty empty -1 -8 0 10 -66577 -1 1 0;
#X obj 1243 477 vu 15 120 empty empty -1 -8 0 10 -66577 -1 1 0;
#X obj 1173 258 readsf~ 2;
#X msg 1168 220 open \$1;
#X obj 1168 131 bng 15 250 50 0 empty empty empty 17 7 0 10 -262144
-1 -1;
#X msg 1134 208 1;
#X msg 1106 228 0;
#X msg 1167 181 open effect.wav;
#X obj 1166 80 select 10;
#X obj 1168 38 netreceive 6000;
#X obj 1120 315 *~ 0.2;
#X obj 1043 421 clip~ -0.5 0.5;
#X floatatom 543 219 5 0 0 0 - - -;
#X obj 757 358 prepend send /sinosc;
#X msg 594 346 connect localhost 8000;
#X obj 758 399 sendOSC;
#X obj 1047 387 *~ 5;
#X obj 508 47 netreceive 10000;
#X obj 592 259 netreceive 4000;
#X msg 593 288 ok;
#X obj 594 315 bng 15 250 50 0 empty empty empty 17 7 0 10 -262144
-1 -1;
#X obj 508 80 route 10 11 12 13 14 15 16 17 18 19;
#X msg 508 114 10;
#X msg 540 114 11;
#X msg 574 114 12;
#X msg 606 114 13;
#X msg 639 115 14;
#X msg 671 114 15;
#X msg 704 114 16;
#X msg 735 114 17;
#X msg 769 114 18;
#X msg 801 114 19;
#X obj 544 244 vsl 15 128 0 127 0 0 empty empty empty 0 -9 0 10 -262144
-1 -1 0 1;
#X msg 508 152 1;
#X obj 544 385 / 5;
#X msg 540 152 3;
#X msg 574 152 5;
#X msg 606 152 8;
#X msg 639 152 12;
#X msg 671 152 16;
#X msg 704 152 20;
#X msg 735 152 25;
#X msg 769 152 30;
#X msg 801 152 35;
#X text 626 43 route messages according to first element;
#X text 628 310 send ok to connect to localhost 8000;
#X floatatom 754 218 5 0 0 0 - - -;
#X text 494 299 volume;
#X text 762 331 value send to processing;
#X obj 271 464 dac~;
#X obj 145 290 env~;
#X obj 187 290 env~;
#X obj 185 325 - 90;
#X obj 122 385 vu 15 120 empty empty -1 -8 0 10 -66577 -1 1 0;
#X obj 191 382 vu 15 120 empty empty -1 -8 0 10 -66577 -1 1 0;
#X obj 144 327 - 90;
#X obj 96 52 netreceive 3000;
#X msg 97 120 0;
#X msg 128 120 1;
#X obj 220 117 bng 15 250 50 0 empty empty empty 17 7 0 10 -262144
-1 -1;
#X obj 220 228 readsf~ 2;
#X msg 220 190 open \$1 \, 1;
#X msg 220 84 on;
#X obj 97 83 route 0 1;
#X obj 219 51 netreceive 5000;
#X msg 221 155 open sound_pd.wav;
#X obj 271 409 *~;
#X text 30 118 1 = start 0 = stop;
#X text 253 121 sound_pd.wav is in pure data folder;
#X text 304 463 audio output;
#X text 300 409 arithmetic on audio signals;
#X text 285 232 soundfile playback from disk;
#X text 37 289 amplitude in dB;
#X text 251 82 "on" allows to run file;
#X connect 0 0 2 0;
#X connect 1 0 3 0;
#X connect 2 0 4 0;
#X connect 3 0 5 0;
#X connect 6 0 0 0;
#X connect 6 0 14 0;
#X connect 6 1 1 0;
#X connect 7 0 6 0;
#X connect 8 0 11 0;
#X connect 9 0 6 0;
#X connect 10 0 6 0;
#X connect 11 0 7 0;
#X connect 12 0 8 0;
#X connect 13 0 12 0;
#X connect 16 0 36 0;
#X connect 17 0 19 0;
#X connect 18 0 19 0;
#X connect 20 0 15 0;
#X connect 21 0 25 0;
#X connect 22 0 23 0;
#X connect 23 0 24 0;
#X connect 24 0 18 0;
#X connect 25 0 26 0;
#X connect 25 1 27 0;
#X connect 25 2 28 0;
#X connect 25 3 29 0;
#X connect 25 4 30 0;
#X connect 25 5 31 0;
#X connect 25 6 32 0;
#X connect 25 7 33 0;
#X connect 25 8 34 0;
#X connect 25 9 35 0;
#X connect 26 0 37 0;
#X connect 26 0 50 0;
#X connect 27 0 39 0;
#X connect 27 0 50 0;
#X connect 28 0 40 0;
#X connect 28 0 50 0;
#X connect 29 0 41 0;
#X connect 29 0 50 0;
#X connect 30 0 42 0;
#X connect 30 0 50 0;
#X connect 31 0 43 0;
#X connect 31 0 50 0;
#X connect 32 0 44 0;
#X connect 32 0 50 0;
#X connect 33 0 45 0;
#X connect 33 0 50 0;
#X connect 34 0 46 0;
#X connect 34 0 50 0;
#X connect 35 0 47 0;
#X connect 35 0 50 0;
#X connect 36 0 38 0;
#X connect 37 0 16 0;
#X connect 38 0 70 1;
#X connect 39 0 16 0;
#X connect 40 0 16 0;
#X connect 41 0 16 0;
#X connect 42 0 16 0;
#X connect 43 0 16 0;
#X connect 44 0 16 0;
#X connect 45 0 16 0;
#X connect 46 0 16 0;
#X connect 47 0 16 0;
#X connect 50 0 17 0;
#X connect 54 0 59 0;
#X connect 55 0 56 0;
#X connect 56 0 58 0;
#X connect 59 0 57 0;
#X connect 60 0 67 0;
#X connect 61 0 64 0;
#X connect 62 0 64 0;
#X connect 63 0 69 0;
#X connect 64 0 54 0;
#X connect 64 0 70 0;
#X connect 64 1 55 0;
#X connect 64 1 70 0;
#X connect 65 0 64 0;
#X connect 66 0 63 0;
#X connect 67 0 61 0;
#X connect 67 1 62 0;
#X connect 68 0 66 0;
#X connect 69 0 65 0;
#X connect 70 0 53 0;
#X connect 70 0 53 1;
